<?xml version="1.0" encoding="UTF-8" standalone="no"?>
<svg
   xmlns:dc="http://purl.org/dc/elements/1.1/"
   xmlns:cc="http://creativecommons.org/ns#"
   xmlns:rdf="http://www.w3.org/1999/02/22-rdf-syntax-ns#"
   xmlns:svg="http://www.w3.org/2000/svg"
   xmlns="http://www.w3.org/2000/svg"
   xmlns:sodipodi="http://sodipodi.sourceforge.net/DTD/sodipodi-0.dtd"
   xmlns:inkscape="http://www.inkscape.org/namespaces/inkscape"
   viewBox="0 0 375 375"
   version="1.1"
   id="svg3843"
   sodipodi:docname="daisy-25627.svg"
   inkscape:version="0.92.3 (2405546, 2018-03-11)">
  <metadata
     id="metadata3849">
    <rdf:RDF>
      <cc:Work
         rdf:about="">
        <dc:format>image/svg+xml</dc:format>
        <dc:type
           rdf:resource="http://purl.org/dc/dcmitype/StillImage" />
      </cc:Work>
    </rdf:RDF>
  </metadata>
  <defs
     id="defs3847" />
  <sodipodi:namedview
     pagecolor="#ffffff"
     bordercolor="#666666"
     borderopacity="1"
     objecttolerance="10"
     gridtolerance="10"
     guidetolerance="10"
     inkscape:pageopacity="0"
     inkscape:pageshadow="2"
     inkscape:window-width="1916"
     inkscape:window-height="2090"
     id="namedview3845"
     showgrid="false"
     inkscape:zoom="4.6746667"
     inkscape:cx="187.5"
     inkscape:cy="153.27296"
     inkscape:window-x="0"
     inkscape:window-y="33"
     inkscape:window-maximized="0"
     inkscape:current-layer="svg3843" />
  <path
     d="m168.56 172.1c-12.721-17.047-24.04-35.243-37.714-51.512-12.554-9.2403-20.95-26.537-36.443-30.085-9.3169-0.78081-24.368-9.2254-20.811 6.6581 1.4123 13.722 12.903 25.648 22.061 35.763 9.5945 10.272 19.853 19.931 32.155 26.889l34.799 23.199c6.6115 0.13104 6.6311-6.1075 5.9523-10.913z"
     fill="#fff"
     fill-rule="evenodd"
     stroke="#000"
     stroke-linecap="round"
     stroke-linejoin="round"
     stroke-width="2.5"
     id="path3801" />
  <path
     d="m169.55 171.11c13.127 5.4884 11.532-17.075 6.7523-24.112-5.9871-17.629-11.718-35.348-18.068-52.853-8.8813-10.475-14.027-25.02-25.923-32.296-8.166-6.4667-24.569-14.839-22.275 2.959-4.7342 13.441 4.1292 26.256 8.9971 38.357 5.6164 11.411 16.053 18.856 22.553 29.68l27.963 38.265z"
     fill="#fff"
     fill-rule="evenodd"
     stroke="#000"
     stroke-linecap="round"
     stroke-linejoin="round"
     stroke-width="2.5"
     id="path3803" />
  <path
     d="m179.78 161.69c8.7615 11.054 7.1337-12.303 10.406-17.067 3.1742-12.992 8.0206-25.944 5.3254-39.44-1.045-16.896-1.9741-33.922-7.3887-50.098-2.6334-8.0983-13.102-22.262-19.071-9.374-8.6594 7.8508-9.2198 20.615-10.253 31.53-2.9333 14.317 3.1517 27.423 7.63 40.657 4.4104 13.995 10.241 27.77 13.351 42.038v1.7532z"
     fill="#fff"
     fill-rule="evenodd"
     stroke="#000"
     stroke-linecap="round"
     stroke-linejoin="round"
     stroke-width="2.5"
     id="path3805" />
  <path
     d="m186.79 160.99c5.4937 10.959 20.626 7.2675 24.389-3.1891 14.298-17.143 27.938-34.83 39.689-53.829 6.5279-7.5449 8.6093-17.127 10.557-26.615 3.2446-8.3719-0.70457-21.608-5.3445-25.906-7.8634 2.4445-15.105-4.8962-20.47 4.8584-10.507 8.5983-17.744 20.654-24.528 32.202-8.3901 18.351-16.489 36.961-20.113 56.94-1.3377 5.1942-2.8461 10.342-4.1799 15.538z"
     fill="#fff"
     fill-rule="evenodd"
     stroke="#000"
     stroke-linecap="round"
     stroke-linejoin="round"
     stroke-width="2.5"
     id="path3807" />
  <path
     d="m207.84 165.9c-6.1081 11.713 6.3533 14.448 15.144 11.463 15.23-9.213 30.71-18.21 43.701-30.54 10.992-8.7718 17.385-21.645 26.162-32.399 6.3991-8.9506 8.7999-19.937 13.202-29.898-13.753-4.9402-26.212-0.67984-37.818 7.0795-12.081 6.5472-21.606 17.208-28.015 29.262-10.167 12.88-21.327 24.987-30.473 38.69l-1.9026 6.3421z"
     fill="#fff"
     fill-rule="evenodd"
     stroke="#000"
     stroke-linecap="round"
     stroke-linejoin="round"
     stroke-width="2.5"
     id="path3809" />
  <path
     d="m221.17 177.82c-10.443 1.504-6.5659 14.024 3.0288 8.8575 15.292-1.5019 30.718-2.4573 45.958 0.07947 14.062-0.5737 29.164 0.76625 41.991-5.8133 11.868-4.1047 22.914-11.915 29.614-22.38 0.5715-11.328-18.538-5.6671-26.48-9.4959-11.457-0.71927-20.288 10.5-31.998 11.275-20.868 5.2714-40.961 13.298-62.113 17.478z"
     fill="#fff"
     fill-rule="evenodd"
     stroke="#000"
     stroke-linecap="round"
     stroke-linejoin="round"
     stroke-width="2.5"
     id="path3811" />
  <path
     d="m223.27 177.82c22.229-4.6036 43.434-12.807 64.802-20.178 15.65-3.7324 28.284-14.04 40.423-24.017 2.5342-8.6051 7.6354-18.29-5.4014-18.439-11.72-1.3914-23.752 4.7186-33.974 10.228-11.999 2.9419-12.932 16.616-22.863 22.241-13.359 11.411-28.265 20.656-42.986 30.164z"
     fill="#fff"
     fill-rule="evenodd"
     stroke="#000"
     stroke-linecap="round"
     stroke-linejoin="round"
     stroke-width="2.5"
     id="path3813" />
  <path
     d="m214.85 187.64c18-1.2967 36.055-5.1724 54.028-1.4958 16.413 2.0413 32.81 6.0912 46.827 15.213 8.1007 2.0844 27.005 14.857 10.859 19.516-8.7425 4.6906-19.185 3.9566-28.766 5.0282-20.075-2.5223-40.298-4.9311-59.671-11.096-10.711-3.2994-22.695-6.9524-30.139-15.632-3.5412-5.5977 3.8053-8.2378 6.8624-11.533z"
     fill="#fff"
     fill-rule="evenodd"
     stroke="#000"
     stroke-linecap="round"
     stroke-linejoin="round"
     stroke-width="2.5"
     id="path3815" />
  <path
     d="m301.84 227.63c9.8761 6.3847 20.156 28.197 2.5813 29.784-14.113 0.58949-29.26-0.29361-41.043-8.9796-17.688-10.438-37.986-18.391-50.807-35.131-6.4804-9.2319 4.4674-11.916 9.9008-4.5682 12.821 6.6217 27.497 8.5015 41.474 11.916 12.655 2.1951 25.269 4.6177 37.895 6.9781z"
     fill="#fff"
     fill-rule="evenodd"
     stroke="#000"
     stroke-linecap="round"
     stroke-linejoin="round"
     stroke-width="2.5"
     id="path3817" />
  <path
     d="m280.09 256.39c8.2671 9.003 16.164 27.597 6.1245 35.852-12.5-1.5846-29.365-1.7865-34.676-15.762-4.6147-11.925-7.9588-24.737-16.876-34.371-5.538-8.2416-17.63-23.189-19.96-26.596 7.3416 8.4701 16.045 15.49 26.26 20.161 11.738 6.3713 22.874 14.137 34.907 19.777l4.2208 0.93795z"
     fill="#fff"
     fill-rule="evenodd"
     stroke="#000"
     stroke-linecap="round"
     stroke-linejoin="round"
     stroke-width="2.5"
     id="path3819" />
  <path
     d="m253.43 280.94c-1.638 9.2243 2.6 20.916-4.173 28.282-12.627 3.0595-21.86-9.195-29.112-17.685-8.0623-14.437-17.626-28.271-21.776-44.513-3.1371-9.8992-5.2627-20.653-5.2918-30.791 10.439-11.954 24.105 3e-3 29.688 10.501 8.6126 11.841 20.503 22.017 24.239 36.643l6.4257 17.563z"
     fill="#fff"
     fill-rule="evenodd"
     stroke="#000"
     stroke-linecap="round"
     stroke-linejoin="round"
     stroke-width="2.5"
     id="path3821" />
  <path
     d="m234.49 306.2c1.5911 9.5855-3.3905 29.062-16.171 22.716-12.728-0.67663-13.592-16.984-19.832-25.594-2.8081-9.0456-5.6262-18.888-5.471-28.342 2.7422-9.3511 4.127-19.315 4.5474-28.821 5.2197 16.849 14.448 32.057 23.869 46.823 3.9453 4.7977 8.9368 8.5842 13.057 13.218z"
     fill="#fff"
     fill-rule="evenodd"
     stroke="#000"
     stroke-linecap="round"
     stroke-linejoin="round"
     stroke-width="2.5"
     id="path3823" />
  <path
     d="m209.94 327.24c-2.6488 8.1556-11.486 25.57-19.035 12.437-6.9338-9.8865-8.6585-21.273-7.6808-33.056-0.24801-10.294 5.9796-19.213 7.7756-29.187 3.3782 13.585 6.2567 27.481 13.798 39.52l5.1428 10.286z"
     fill="#fff"
     fill-rule="evenodd"
     stroke="#000"
     stroke-linecap="round"
     stroke-linejoin="round"
     stroke-width="2.5"
     id="path3825" />
  <path
     d="m197.32 243.06c-2.2594 16.234-3.8527 32.826-11.371 47.7-5.5496 12.341-12.718 28.524-25.637 32.875-11.807 2.8716-12.614-17.366-14.092-25.521 1.035-16.093 1.6423-33.205 10.716-47.162 5.9096-11.666 11.516-23.487 17.235-35.249 10.949-5.6175 20.615 1.1118 19.837 13.003l3.3127 14.355z"
     fill="#fff"
     fill-rule="evenodd"
     stroke="#000"
     stroke-linecap="round"
     stroke-linejoin="round"
     stroke-width="2.5"
     id="path3827" />
  <path
     d="m146.11 304.79c-7.0751 5.5026-14.001 13.95-23.703 13.417-12.396-2.8947-7.5719-22.67 3.0161-25.932 9.3493-4.8857 20.466-22.863 23.852-23.795-1.9659 12.004-3.9967 24.1-3.1653 36.31z"
     fill="#fff"
     fill-rule="evenodd"
     stroke="#000"
     stroke-linecap="round"
     stroke-linejoin="round"
     stroke-width="2.5"
     id="path3829" />
  <path
     d="m174.17 214.3c-12.286 23.954-20.975 50.318-39.593 70.412-7.0098 8.9296-18.308 12.484-27.049 19.38-14.878 3.0561-11.319-13.884-7.5024-22.15 2.6146-10.627 7.0325-21.031 13.58-29.753 11.54-5.4256 23.046-11.435 31.995-20.792 8.8402-4.5245 18.686-21.753 28.57-17.096z"
     fill="#fff"
     fill-rule="evenodd"
     stroke="#000"
     stroke-linecap="round"
     stroke-linejoin="round"
     stroke-width="2.5"
     id="path3831" />
  <path
     d="m169.96 210.79c-13.154 11.223-25.358 23.571-39.233 33.937-18.535 7.4537-37.03 16.867-57.527 16.506-6.6072 0.51142-18.779 0.48075-10.228-8.698 4.7008-12.223 15.303-20.748 25.303-28.629 10.985-7.004 21.443-15.211 34.263-18.619 11.31-5.3579 23.918-7.2335 36.256-7.3532 4.9894 2.1449 9.8308 7.486 11.166 12.857z"
     fill="#fff"
     fill-rule="evenodd"
     stroke="#000"
     stroke-linecap="round"
     stroke-linejoin="round"
     stroke-width="2.5"
     id="path3833" />
  <path
     d="m71.748 237.45c-12.567 1.5194-31.619 1.1232-39.247-8.6327 5.9745-8.2787 16.308-14.644 25.409-19.928 14.429-5.6168 28.888-11.451 44.391-13.314 14.26-2.1968 28.807-4.2687 43.131-4.6944 9.5145-3.279 15.769 9.7956 2.7738 6.9347-12.411-0.04659-24.161 5.736-34.967 11.228-15.292 7.3455-28.624 17.483-41.491 28.406z"
     fill="#fff"
     fill-rule="evenodd"
     stroke="#000"
     stroke-linecap="round"
     stroke-linejoin="round"
     stroke-width="2.5"
     id="path3835" />
  <path
     d="m92.793 196.76c-10.007-0.52541-20.201-1.0759-29.143-6.109-10.112-3.8693-19.153-10.161-27.562-16.753-6.0456-12.756 15.614-15.869 24.656-14.357 16.555-0.36791 33.103 0.69216 49.586 2.1445 16.396 8.0294 33.84 14.414 48.61 25.362 3.5282 12.026-15.253 1.4245-22.353 4.7682-14.748-0.28563-29.234 3.0082-43.794 4.9443z"
     fill="#fff"
     fill-rule="evenodd"
     stroke="#000"
     stroke-linecap="round"
     stroke-linejoin="round"
     stroke-width="2.5"
     id="path3837" />
  <path
     d="m86.479 158.88c-10.981-6.3833-23.916-10.378-31.619-21.107-5.9025-4.547-17.159-23.559-2.766-21.882 11.985 4.2838 31.447-5.0747 35.845 9.908 8.5868 9.8899 17.717 19.967 28.749 27.272 15.094 9.4123 30.042 19.093 44.852 28.958-0.42955 13.502-14.441-5.2714-21.266-5.8475-12.824-4.0337-23.44-14.786-36.988-15.501-5.6295-0.26712-11.272-0.6939-16.806-1.8011z"
     fill="#fff"
     fill-rule="evenodd"
     stroke="#000"
     stroke-linecap="round"
     stroke-linejoin="round"
     stroke-width="2.5"
     id="path3839" />
  <path
     d="m179.78 161.69c-1.8556 5.6767-3.7811 11.514-10.613 8.9409 0.66985 9.8271-9.0467 12.252-10.622 21.159-6.7308 7.7989 15.147 11.826 11.855 20.992 6.213 5.5937 16.537-0.95753 22.149 4.5237 5.4252-8.8949 22.392-1.7472 18.183-15.503-10.146-6.7443 16.581-25.028-0.09637-24.678-10.092 2.0925 4.3536-28.202-5.3102-12.212-6.3742 5.2147-15.899 0.47731-19.47-4.1415-0.78984 7.7053-2.0676 5.4218-6.0757 0.9209z"
     fill-rule="evenodd"
     stroke="#000"
     stroke-linecap="round"
     stroke-linejoin="round"
     stroke-width="2.5"
     id="path3841" />
  <path
     style="fill:#fef102;fill-opacity:1;stroke-width:0.213919"
     d="M 89.225613,195.22309 C 77.770854,194.48097 72.3952,193.3115 65.289284,190.01573 63.688507,189.27328 61.329633,188.20186 60.047342,187.6348 54.761263,185.29716 47.93666,181.09162 40.849146,175.80425 l -3.774356,-2.81571 -0.373976,-1.38158 c -0.693993,-2.56382 -0.129428,-4.38963 1.943013,-6.28372 2.078769,-1.89988 5.606083,-3.3245 10.471974,-4.22945 1.92693,-0.35836 3.14743,-0.39205 12.300343,-0.33951 15.819928,0.0908 26.274675,0.49645 40.002856,1.55209 7.24852,0.55738 7.55245,0.59861 9.41243,1.27693 2.71049,0.98848 10.28834,4.63674 14.06441,6.77111 6.4877,3.6671 13.91907,7.13418 15.29146,7.13418 0.88263,0 4.53485,2.17244 7.82698,4.65569 4.5938,3.46511 7.027,5.05757 8.60911,5.63444 1.39951,0.51029 1.41801,0.55206 0.98494,2.22413 -0.19242,0.74296 -0.43614,1.15524 -0.79806,1.35003 -0.76023,0.40916 -4.06436,0.17875 -8.46974,-0.59063 -2.01867,-0.35255 -4.62634,-0.73095 -5.79482,-0.8409 -2.19811,-0.20682 -5.05074,-0.0147 -5.80925,0.39123 -0.24356,0.13035 -1.8489,0.22507 -3.81455,0.22507 -5.87545,0 -13.27995,0.75129 -24.28345,2.46389 -9.467622,1.47355 -16.163049,2.45978 -16.46662,2.42552 -0.149732,-0.0169 -1.475534,-0.10869 -2.946227,-0.20397 z"
     id="path4753"
     inkscape:connector-curvature="0" />
  <path
     style="fill:#fef102;fill-opacity:1;stroke-width:0.213919"
     d="m 64.404284,259.65648 c -1.657973,-0.36059 -2.601066,-0.84577 -2.894095,-1.4889 -0.300943,-0.6605 0.448221,-2.32489 1.78589,-3.96764 0.526929,-0.6471 1.085508,-1.51347 1.241287,-1.92527 1.063224,-2.81058 3.908219,-7.50294 6.454914,-10.64633 1.899272,-2.34427 6.298226,-6.81033 9.018514,-9.15609 6.205447,-5.35108 17.008365,-12.93211 24.983786,-17.53256 4.52875,-2.61231 13.16715,-6.84371 15.50295,-7.5939 1.16646,-0.37463 3.24094,-1.15443 4.60996,-1.73289 8.53461,-3.60621 17.54702,-5.52978 28.92573,-6.1738 l 3.8193,-0.21616 1.63563,1.35274 c 0.8996,0.744 2.64641,2.11309 3.88179,3.0424 1.23538,0.92932 2.46504,1.92544 2.73258,2.2136 0.65032,0.70044 2.22222,3.86685 2.14329,4.31741 -0.0345,0.19686 -1.84357,1.9302 -4.0202,3.85188 -2.17662,1.92168 -6.46035,5.76122 -9.51939,8.53232 -6.27335,5.68284 -10.086,9.07823 -13.36994,11.90669 -2.84604,2.4513 -9.73159,7.99014 -10.82694,8.70936 -0.78184,0.51336 -7.14862,3.21434 -17.2156,7.30336 -14.73621,5.98559 -24.937714,8.67575 -35.286348,9.30511 -4.96785,0.30213 -11.988498,0.24983 -13.603108,-0.10133 z"
     id="path5298"
     inkscape:connector-curvature="0" />
  <path
     style="fill:#fef102;fill-opacity:1;stroke-width:0.213919"
     d="m 157.11341,322.41875 c -2.00443,-0.30975 -3.91781,-2.11591 -5.28323,-4.98715 -1.50532,-3.16545 -2.37621,-6.75008 -3.51734,-14.4775 l -0.74522,-5.04648 0.41252,-6.07731 c 1.27191,-18.73813 3.34385,-27.92146 8.34534,-36.98861 1.94399,-3.52424 8.93996,-17.58045 14.74616,-29.62778 2.15474,-4.47091 3.99978,-8.23632 4.10008,-8.36758 0.2848,-0.37271 11.52825,-0.63237 12.18674,-0.28144 1.07892,0.57498 1.97765,1.43423 2.98784,2.85662 1.4291,2.0122 2.12439,4.22469 2.25727,7.18287 0.0799,1.77853 0.43844,3.73033 1.72229,9.37524 l 1.62139,7.12909 -0.9026,6.66869 c -2.30971,17.06487 -4.36304,26.17688 -7.88992,35.01295 -1.15903,2.90377 -6.85611,15.01123 -8.45246,17.96319 -4.52306,8.36405 -9.02317,13.92906 -13.80117,17.06703 -3.30421,2.17006 -5.60051,2.93617 -7.78769,2.59817 z"
     id="path5300"
     inkscape:connector-curvature="0" />
  <path
     style="fill:#fef102;fill-opacity:1;stroke-width:0.213919"
     d="m 242.17028,308.01602 c -1.72275,-0.39303 -3.55908,-1.14575 -5.47527,-2.24435 -1.25123,-0.71736 -2.7498,-2.07113 -7.66624,-6.9255 l -6.11099,-6.03385 -2.36033,-3.74358 c -8.72812,-13.84316 -15.20191,-26.01736 -18.42815,-34.65488 -2.37645,-6.36239 -6.49658,-23.16612 -6.75857,-27.56451 -0.0726,-1.2183 -0.26916,-2.85478 -0.43687,-3.63662 -0.1677,-0.78183 -0.36556,-2.48041 -0.43969,-3.77462 l -0.13477,-2.35311 0.60267,-0.55386 c 1.57351,-1.44607 3.33544,-2.20953 7.09998,-3.07649 2.88397,-0.66418 3.29442,-0.6681 5.00312,-0.0479 5.00918,1.81824 10.33846,6.79556 14.01633,13.09066 1.06591,1.82443 3.12037,4.46452 8.48981,10.90987 2.25436,2.70608 4.92298,5.97904 5.93028,7.27325 4.55305,5.84993 7.92749,11.83989 9.58062,17.00656 0.50821,1.58835 2.23334,6.49779 3.83363,10.90987 l 2.9096,8.02196 -0.014,9.73331 c -0.0121,8.39425 -0.065,9.96876 -0.38456,11.44467 -0.39083,1.80511 -1.67402,4.71468 -2.53532,5.74872 -0.50064,0.60103 -0.56628,0.61638 -2.96046,0.69222 -1.59882,0.0506 -2.90386,-0.0263 -3.76079,-0.22184 z"
     id="path5302"
     inkscape:connector-curvature="0" />
  <path
     style="fill:#fef102;fill-opacity:1;stroke-width:0.213919"
     d="m 289.36823,223.48959 c -6.62222,-0.86141 -21.48334,-3.36993 -25.99116,-4.38724 -1.0589,-0.23897 -5.39366,-1.19335 -9.63279,-2.12083 -15.17196,-3.31949 -21.5627,-5.18859 -27.8799,-8.15403 -1.69716,-0.79668 -2.55708,-1.36197 -3.67251,-2.41421 -1.88111,-1.77455 -3.97991,-2.82375 -6.30482,-3.15183 -1.16977,-0.16507 -1.91445,-0.39516 -2.35311,-0.72707 -1.0784,-0.81597 -3.25556,-2.96293 -3.50662,-3.458 -0.33749,-0.66548 -0.29298,-2.63592 0.0837,-3.70339 0.94762,-2.68585 1.35073,-3.25472 3.44726,-4.8648 l 2.01607,-1.54828 2.50948,-0.22595 c 1.38022,-0.12428 6.11937,-0.60199 10.53145,-1.06159 19.88784,-2.07168 26.80816,-2.23115 36.15231,-0.83309 1.58835,0.23765 4.71692,0.70577 6.95237,1.04026 17.48355,2.61608 30.07045,6.65913 40.75157,13.08984 1.47069,0.88545 3.20343,1.78449 3.85054,1.99786 5.75427,1.8974 12.81043,6.96758 14.55474,10.45827 0.70444,1.4097 0.78667,2.20801 0.32031,3.10983 -0.58681,1.13477 -1.41715,1.65116 -5.03478,3.13118 -0.76476,0.31287 -2.16058,0.88877 -3.10182,1.27977 -3.48228,1.44658 -7.74882,2.25449 -14.61776,2.76802 -2.43157,0.18179 -5.66218,0.42511 -7.17913,0.54071 -3.78057,0.2881 -3.81136,0.28612 -11.89535,-0.76543 z"
     id="path5304"
     inkscape:connector-curvature="0" />
  <path
     style="fill:#fef102;fill-opacity:1;stroke-width:0.213919"
     d="m 216.02545,176.84751 c -0.80125,-0.56557 -2.34121,-0.94332 -4.28679,-1.05156 -1.83397,-0.10203 -2.18627,-0.24873 -3.06662,-1.27698 -0.28249,-0.32994 -0.37056,-0.83504 -0.37367,-2.14304 -0.006,-2.37155 0.49061,-4.9878 1.68787,-8.89834 0.94755,-3.09491 1.13617,-3.50498 2.60548,-5.66443 3.59413,-5.28229 8.04611,-10.97458 18.05648,-23.08698 9.11907,-11.03394 10.7736,-13.11385 11.37345,-14.2976 0.80585,-1.59027 3.13857,-5.32455 4.63208,-7.41517 2.59228,-3.62867 4.5774,-5.95019 8.04955,-9.41365 4.98831,-4.975813 6.87288,-6.389203 15.94703,-11.959914 10.62819,-6.524746 19.71892,-8.91873 28.45123,-7.492441 2.0636,0.337056 5.0271,1.089652 5.0271,1.276655 0,0.09473 -0.18563,0.605302 -0.41252,1.134596 -0.22688,0.529293 -1.48926,3.882432 -2.8053,7.45142 -4.72679,12.818694 -6.12405,15.558014 -11.67334,22.885654 -1.18964,1.57087 -3.43691,4.68513 -4.99394,6.92058 -1.55704,2.23546 -3.43307,4.69018 -4.16897,5.45494 -1.60686,1.66987 -2.63718,3.0285 -5.19126,6.84541 -2.0272,3.02953 -4.71365,5.97421 -8.10701,8.88629 -0.95415,0.81883 -2.68327,2.34113 -3.8425,3.38289 -7.50148,6.74135 -18.45098,14.36457 -35.32536,24.59407 -4.67159,2.83199 -5.35179,3.17874 -6.95237,3.54417 -2.86703,0.65457 -4.04493,0.73684 -4.63062,0.32343 z"
     id="path5306"
     inkscape:connector-curvature="0" />
  <path
     style="fill:#fef102;fill-opacity:1;stroke-width:0.213919"
     d="m 195.67612,165.40898 c -2.88081,-0.75416 -6.33925,-2.69995 -7.10601,-3.99798 -0.34064,-0.57666 -0.29368,-0.80621 1.56514,-7.64993 1.05397,-3.88048 2.20554,-8.45124 2.55903,-10.15725 2.89191,-13.9568 7.26519,-26.76043 15.46634,-45.280777 4.24866,-9.594601 5.22417,-11.414662 10.81514,-20.178434 4.96202,-7.777902 10.28593,-14.35923 15.07382,-18.633996 1.39403,-1.244638 2.81784,-2.751901 3.44985,-3.652064 1.14051,-1.624414 2.58907,-2.79563 3.91209,-3.163091 1.1232,-0.311961 3.47149,-0.271022 5.7077,0.09951 2.79038,0.462348 6.01527,0.619665 7.38021,0.360022 1.36547,-0.259744 1.33864,-0.280272 2.80862,2.148758 1.94694,3.217172 3.43357,8.200532 3.81899,12.801674 0.24512,2.926348 0.0174,5.457011 -0.73027,8.11392 -0.28141,1.000072 -0.81983,3.262265 -1.19647,5.027097 -1.91408,8.968592 -4.47622,15.412917 -7.96555,20.035031 -0.82984,1.09924 -2.08629,2.91312 -2.79211,4.03085 -1.81806,2.87909 -8.49903,12.86802 -10.73076,16.04393 -2.46903,3.51359 -3.07406,4.28089 -9.53036,12.08642 -9.37459,11.33369 -14.23142,17.56154 -18.05893,23.15673 -0.90545,1.32362 -1.77238,2.40659 -1.9265,2.40659 -0.46431,0 -1.57306,1.28121 -2.82616,3.26574 -1.32385,2.0966 -2.0999,2.69175 -4.23475,3.24767 -1.68561,0.43893 -3.5009,0.40221 -5.45906,-0.11042 z"
     id="path5308"
     inkscape:connector-curvature="0" />
  <path
     style="fill:#fef102;fill-opacity:1;stroke-width:0.213919"
     d="m 182.21794,162.30191 c -0.9712,-0.8732 -1.09273,-1.07837 -1.09273,-1.84489 0,-2.13571 -2.76756,-11.77492 -6.52785,-22.73597 -13.53222,-39.445756 -13.45583,-39.209463 -14.43668,-44.65666 -0.92164,-5.118338 -1.00154,-10.744737 -0.20873,-14.697572 0.1071,-0.534009 0.34554,-2.607406 0.52986,-4.607548 1.30212,-14.130145 3.37169,-20.481969 8.50337,-26.098118 0.75254,-0.823588 1.64329,-2.006513 1.97944,-2.628722 1.20354,-2.227756 3.13449,-3.449566 4.83731,-3.06082 3.02885,0.691472 6.8834,4.754781 9.55203,10.069345 2.20454,4.390351 4.86191,14.686074 6.24054,24.178383 0.87806,6.045693 1.57302,13.443904 2.26069,24.065892 0.18281,2.82373 0.42591,5.65852 0.54023,6.29953 1.00113,5.61378 0.55567,12.83549 -1.30704,21.18906 -1.00503,4.50722 -4.01101,15.79637 -4.58532,17.22048 -0.72968,1.80935 -0.86389,2.4209 -1.90749,8.69195 -0.86787,5.21508 -0.96652,5.61611 -1.48611,6.04109 -0.44542,0.36432 -0.58422,0.71148 -0.69516,1.73872 -0.23113,2.1402 -0.5926,2.27776 -2.19636,0.83585 z"
     id="path5310"
     inkscape:connector-curvature="0" />
  <path
     style="fill:#fef102;fill-opacity:1;stroke-width:0.213919"
     d="m 170.72081,169.68279 c -0.57358,-0.16623 -2.67335,-2.93745 -14.45167,-19.07298 -7.57932,-10.38317 -14.33266,-19.71766 -15.00742,-20.74331 -1.67375,-2.54413 -4.71774,-6.30062 -9.23626,-11.39816 -8.60316,-9.70562 -9.65867,-11.30956 -14.57006,-22.140616 -4.421,-9.749606 -5.80134,-13.345388 -6.75169,-17.588144 -0.41269,-1.842409 -0.49215,-2.806941 -0.48962,-5.942946 0.003,-3.290923 0.0648,-3.963445 0.51405,-5.561894 0.41888,-1.490473 0.51765,-2.377564 0.54781,-4.920136 0.0416,-3.508588 0.24499,-4.378983 1.29465,-5.540833 1.23301,-1.364794 3.03819,-1.629972 5.97784,-0.878135 3.25089,0.831436 7.64623,3.124427 11.8116,6.161953 1.08122,0.788463 2.51845,1.818623 3.19385,2.289245 1.60594,1.119041 5.11247,4.475681 6.80461,6.513731 2.085,2.511222 4.24673,5.621303 8.19463,11.789606 3.83208,5.987336 5.06077,7.78742 7.21873,10.575727 0.72845,0.941244 1.49362,2.19267 1.70037,2.780947 0.20675,0.588278 1.65376,4.823875 3.21559,9.412435 3.2674,9.59946 7.73783,22.67143 11.33937,33.15745 3.88216,11.30307 6.31708,19.82689 6.31708,22.11394 0,1.98798 -1.96099,6.65885 -3.35187,7.98381 -1.16083,1.10581 -2.6898,1.46672 -4.27159,1.00831 z"
     id="path5312"
     inkscape:connector-curvature="0" />
  <path
     style="fill:#fef102;fill-opacity:1;stroke-width:0.213919"
     d="m 162.52782,181.16294 c -0.13902,-0.1675 -4.48631,-3.07947 -9.66065,-6.47105 -5.17434,-3.39158 -13.00667,-8.52496 -17.40518,-11.40752 -4.39852,-2.88256 -9.31046,-6.05926 -10.91543,-7.05933 -6.22999,-3.88196 -13.24622,-9.57639 -20.28805,-16.46597 -5.709349,-5.58589 -14.271765,-14.87259 -16.363098,-17.74722 -0.550834,-0.75714 -1.441631,-1.86418 -1.979551,-2.46007 -3.315685,-3.67303 -7.234181,-10.08082 -9.065022,-14.82375 -0.926024,-2.39893 -1.460226,-4.55594 -2.05043,-8.279251 -1.250815,-7.890779 0.650413,-8.876511 11.772609,-6.103762 1.353037,0.337311 3.807758,0.860182 5.454934,1.161936 3.668007,0.671961 5.227765,1.155015 7.642885,2.366985 5.165533,2.5922 8.894283,5.853019 17.449733,15.259892 4.93039,5.42106 8.87497,9.36092 11.2269,11.21347 1.29642,1.02115 2.50144,2.35308 5.26483,5.81933 5.89971,7.40029 8.58799,11.07332 19.80774,27.06355 4.33411,6.17691 9.17502,13.00997 10.75759,15.18458 1.58257,2.17461 2.96276,4.17835 3.06708,4.45275 0.62255,1.63743 -0.70913,4.52827 -3.60084,7.81677 -0.78446,0.89211 -0.77595,0.88846 -1.11605,0.47866 z"
     id="path5316"
     inkscape:connector-curvature="0" />
  <path
     style="fill:#fef102;fill-opacity:1;stroke-width:0.213919"
     d="m 290.65174,255.9802 c -2.28989,-0.16714 -6.72374,-0.78388 -9.15246,-1.27309 -5.60608,-1.12922 -11.57557,-3.52412 -15.86405,-6.36452 -2.18937,-1.45009 -4.52103,-2.80911 -9.95925,-5.80481 -1.88248,-1.03698 -4.04498,-2.26617 -4.80555,-2.73152 -2.82131,-1.7262 -8.75709,-5.05713 -11.45229,-6.42658 -4.83871,-2.45857 -10.99353,-6.60062 -15.18825,-10.22134 -1.17655,-1.01556 -4.03576,-3.7981 -6.3538,-6.18342 -3.3089,-3.40495 -4.37786,-4.64762 -4.97428,-5.7826 -0.86552,-1.6471 -0.91618,-2.00262 -0.51366,-3.60525 0.25263,-1.00584 0.38676,-1.19562 1.03814,-1.46887 1.01951,-0.42769 2.87386,-0.23504 4.38153,0.45519 0.753,0.34473 1.75204,1.0986 2.69289,2.03201 1.31416,1.30377 1.81315,1.62653 4.1099,2.65836 5.13505,2.30695 10.97469,4.25481 17.69544,5.90245 2.321,0.56901 9.84836,2.2445 20.21534,4.49966 1.64718,0.35832 6.26783,1.23665 10.26811,1.95186 6.69372,1.19676 27.2443,4.99875 28.23807,5.22422 0.69776,0.15831 3.1933,2.34093 4.71618,4.12481 5.70566,6.68353 8.22284,14.69554 5.98958,19.06445 -0.99088,1.93848 -2.85906,3.16168 -5.73653,3.75604 -1.30621,0.2698 -2.92157,0.33043 -8.00932,0.30059 -3.50521,-0.0206 -6.80629,-0.069 -7.33574,-0.10764 z"
     id="path5318"
     inkscape:connector-curvature="0" />
  <path
     style="fill:#fef105;fill-opacity:1;stroke-width:0.213919"
     d="m 55.597547,236.61415 c -5.052927,-0.44758 -9.907293,-1.40042 -12.895311,-2.53118 -3.161951,-1.19657 -6.258231,-3.04286 -7.794417,-4.64775 l -0.688302,-0.71909 1.892076,-2.13616 c 3.972673,-4.48516 9.975225,-9.05074 18.970414,-14.42903 3.097134,-1.85179 4.117239,-2.32201 9.63726,-4.44225 10.888689,-4.18235 17.409188,-6.3843 23.928765,-8.08066 4.909882,-1.27752 7.803562,-1.83299 15.616088,-2.99766 15.90156,-2.37057 23.47259,-3.27815 28.66514,-3.43625 2.43592,-0.0742 4.3423,-0.24183 5.18907,-0.45638 1.77416,-0.44953 4.0643,-0.29131 9.84771,0.68034 2.47554,0.4159 4.78239,0.75619 5.12632,0.75619 0.46251,0 0.68997,0.14187 0.87359,0.54487 0.87361,1.91736 -0.28434,2.31296 -5.63452,1.92498 -6.07174,-0.4403 -14.00531,1.37289 -23.53109,5.37797 -4.17814,1.75668 -17.70105,8.5363 -21.71278,10.88555 -8.852032,5.18372 -17.89149,11.64449 -28.202976,20.15752 l -3.709255,3.06231 -1.63872,0.20692 c -1.710575,0.216 -12.267,0.42786 -13.939062,0.27976 z"
     id="path5434"
     inkscape:connector-curvature="0" />
  <path
     style="fill:#82cff5;fill-opacity:1;stroke-width:0.213919"
     d="m 157.20907,185.0866 c -1.45826,-0.6604 -2.71557,-1.50765 -7.30635,-4.92342 -4.9011,-3.64667 -6.26313,-4.45355 -8.73758,-5.17627 -3.80597,-1.11163 -7.92264,-3.05428 -15.3072,-7.22346 -8.36658,-4.7236 -13.60912,-6.97376 -18.38504,-7.89107 -1.17655,-0.22598 -3.87193,-0.51516 -5.98973,-0.64263 -5.636665,-0.33925 -10.404756,-0.85227 -13.584562,-1.46163 -0.529834,-0.10153 -2.021919,-0.7664 -3.315744,-1.47747 -1.293823,-0.71108 -4.758994,-2.50427 -7.70038,-3.98487 -10.131347,-5.0998 -15.31635,-8.63853 -18.959245,-12.93954 -0.749683,-0.88512 -2.340911,-2.64717 -3.536062,-3.91568 -5.369267,-5.69884 -8.984743,-13.43873 -7.705749,-16.49622 0.691958,-1.65415 2.950646,-2.22762 5.849896,-1.48524 3.320881,0.85033 4.834197,0.97364 10.767304,0.87734 9.650874,-0.15665 12.980057,-0.0875 14.86737,0.30871 1.980015,0.4157 4.004093,1.30496 5.250962,2.30697 1.099095,0.88326 2.409483,2.83045 2.890664,4.29543 0.26898,0.81892 0.871602,1.70564 2.210765,3.25301 6.169972,7.12925 14.480551,15.58076 19.061471,19.3847 4.68761,3.89255 6.14183,4.91061 14.86737,10.40831 10.25081,6.45872 20.90049,13.34054 33.32851,21.53686 3.39392,2.2383 4.42534,3.02041 4.34783,3.29686 -0.0559,0.19933 -0.1648,0.67627 -0.24203,1.05986 -0.27911,1.38642 -1.02612,1.63504 -2.67247,0.88945 z"
     id="path852"
     inkscape:connector-curvature="0" />
  <path
     style="fill:#82cff5;fill-opacity:1;stroke-width:0.213919"
     d="m 232.97567,173.18792 c 5.45662,-3.48911 17.98585,-11.97384 21.57515,-14.61058 2.16156,-1.5879 5.66307,-4.28292 7.78115,-5.98892 2.11807,-1.706 4.53364,-3.58314 5.36794,-4.17142 3.42749,-2.41679 5.35169,-4.6082 9.48689,-10.80432 4.62477,-6.92968 6.87692,-9.08128 10.95905,-10.46976 0.89213,-0.30344 3.30666,-1.43273 5.36563,-2.50953 7.2824,-3.80856 14.11978,-6.49625 19.25271,-7.56801 4.34813,-0.90789 12.60595,-0.77205 14.97319,0.24631 1.93625,0.83296 2.72308,2.35736 2.49484,4.83353 -0.15306,1.66049 -0.52955,3.14932 -1.86608,7.37936 l -1.0601,3.35516 -4.29147,3.44923 c -14.16075,11.38159 -22.85966,16.4681 -33.29289,19.46732 -1.62176,0.4662 -5.83655,1.86676 -9.36622,3.11236 -18.86471,6.65724 -28.86785,10.00937 -37.00798,12.40166 -4.65258,1.36733 -11.88693,3.31177 -12.32157,3.31177 -0.16122,0 0.71617,-0.64537 1.94976,-1.43416 z"
     id="path854"
     inkscape:connector-curvature="0" />
  <path
     style="fill:#82cff5;fill-opacity:1;stroke-width:0.213919"
     d="m 217.20873,185.50113 c -0.78713,-0.84717 -0.91964,-1.47503 -0.49038,-2.3235 0.20867,-0.41245 0.48763,-1.15183 0.6199,-1.64305 0.17364,-0.64483 0.4408,-1.01693 0.96096,-1.3384 0.94483,-0.58394 3.82979,-1.31452 4.59026,-1.16242 0.67512,0.13502 2.87487,-0.31055 9.22229,-1.868 8.58873,-2.10741 19.14668,-5.30957 31.66498,-9.60379 8.53141,-2.92657 17.22333,-5.38181 22.33905,-6.31018 3.6098,-0.65509 6.3388,-1.79913 13.26406,-5.56052 7.17449,-3.89676 9.97937,-4.96204 13.59826,-5.16452 1.71216,-0.0958 2.2328,-0.0429 3.30572,0.33565 1.73048,0.61062 5.25255,1.01737 11.18919,1.2922 7.03376,0.32562 9.96039,0.93862 11.57732,2.42493 0.67222,0.61792 1.29884,2.00462 1.3047,2.88729 0.0129,1.94102 -6.54339,9.26285 -11.86287,13.24802 -4.25107,3.18476 -9.46936,6.12255 -13.97446,7.86736 -1.14092,0.44187 -3.03688,1.23635 -4.21324,1.7655 -7.85768,3.53459 -15.55196,4.69214 -31.98124,4.81136 l -7.16628,0.052 -3.95751,-0.68827 c -8.64149,-1.50289 -17.24454,-1.64375 -29.52082,-0.48337 -9.48001,0.89607 -13.42315,1.29606 -14.65345,1.48643 -0.70593,0.10924 -2.19802,0.2618 -3.31574,0.33904 -1.94831,0.13463 -2.05158,0.11961 -2.5007,-0.36377 z"
     id="path856"
     inkscape:connector-curvature="0" />
  <path
     style="fill:#82cff5;fill-opacity:1;stroke-width:0.213919"
     d="m 283.13641,290.54423 c -7.20687,-0.87469 -9.16756,-1.15529 -11.87251,-1.69914 -6.46335,-1.2995 -10.98297,-3.32737 -14.15128,-6.34942 -2.38462,-2.27454 -2.8855,-3.26735 -6.01928,-11.93092 -1.57465,-4.35326 -3.22114,-9.02204 -3.65886,-10.37507 -1.79817,-5.55832 -5.74408,-12.18599 -11.46247,-19.25271 -3.15456,-3.89837 -9.49881,-12.19339 -9.32582,-12.19339 0.0547,0 0.99509,0.63437 2.08976,1.40971 3.05681,2.16509 5.4133,3.56682 10.21004,6.07335 4.74762,2.48087 5.6056,2.97284 15.95311,9.14772 13.6164,8.12558 19.30526,11.11419 22.4615,11.80002 1.82744,0.39709 1.97239,0.47073 2.85265,1.44942 1.48096,1.64656 4.21975,5.918 5.58994,8.71812 2.4733,5.05447 3.68299,9.5784 3.69323,13.81182 0.009,3.63897 -0.6569,5.84646 -2.49977,8.28936 -1.12357,1.48939 -0.98556,1.45003 -3.86024,1.10113 z"
     id="path858"
     inkscape:connector-curvature="0" />
  <path
     style="fill:#82cff5;fill-opacity:1;stroke-width:0.213919"
     d="m 221.52774,328.63193 c -0.47062,-0.11403 -1.337,-0.38889 -1.92527,-0.61079 -0.58828,-0.22191 -1.77457,-0.51953 -2.63621,-0.66138 -2.18747,-0.36012 -4.12665,-1.38507 -5.78845,-3.0595 -2.28363,-2.30097 -3.73739,-4.86614 -6.3279,-11.16563 -1.55782,-3.78824 -3.7284,-8.34606 -4.54944,-9.55299 -0.3476,-0.51098 -0.6861,-1.12157 -0.75222,-1.35688 -0.0661,-0.23531 -0.66522,-2.30498 -1.33132,-4.59926 -2.54903,-8.77966 -3.74994,-15.30118 -3.74994,-20.36394 0,-1.923 0.12381,-2.79271 0.7544,-5.29937 1.38401,-5.50159 2.64767,-12.66507 3.01263,-17.07811 0.0808,-0.97676 0.21332,-1.69874 0.29452,-1.60439 0.0812,0.0943 0.46506,0.98978 0.853,1.98985 3.56469,9.18948 9.27949,19.88584 18.5724,34.76183 l 2.67267,4.27838 6.32982,6.25367 6.32982,6.25366 0.0813,2.37374 c 0.24309,7.10201 -2.42157,15.1554 -5.93534,17.93835 -1.75082,1.38668 -4.0102,1.96172 -5.90442,1.50276 z"
     id="path860"
     inkscape:connector-curvature="0" />
  <path
     style="fill:#82cff5;fill-opacity:1;stroke-width:0.213919"
     d="m 194.95945,342.3568 c -2.39691,-1.73632 -6.53698,-8.83012 -8.29706,-14.21659 -1.82194,-5.57578 -2.3539,-10.05212 -2.17726,-18.32133 0.18342,-8.58718 0.52786,-10.32022 3.82645,-19.25271 1.06447,-2.88256 2.10008,-5.75796 2.30134,-6.38977 l 0.36594,-1.14877 0.46936,1.89748 c 3.65308,14.76829 6.54236,22.83074 11.01703,30.74277 0.87554,1.5481 2.58334,4.80758 3.79512,7.2433 l 2.20324,4.42857 -0.39336,1.13332 c -0.61551,1.77341 -3.16096,6.96618 -4.22568,8.62048 -1.51637,2.35605 -3.11411,4.14209 -4.51589,5.0481 -1.69442,1.09516 -3.06147,1.16247 -4.36923,0.21515 z"
     id="path862"
     inkscape:connector-curvature="0" />
  <path
     style="fill:#82cff5;fill-opacity:1;stroke-width:0.213919"
     d="m 121.94845,316.69257 c -1.91115,-0.63492 -3.65894,-2.15944 -4.5696,-3.98587 -1.79899,-3.60809 -1.00314,-9.26633 1.94341,-13.81708 0.68839,-1.06318 1.10383,-1.39644 3.67984,-2.95197 7.50822,-4.53382 9.31251,-6.22905 19.07761,-17.92439 2.57191,-3.0803 4.78927,-5.67042 4.92745,-5.75582 0.29032,-0.17943 0.25579,0.16505 -0.54868,5.47359 -1.32502,8.74361 -1.83251,14.72997 -1.83375,21.63104 l -8.7e-4,4.83841 -3.98328,3.39748 c -2.1908,1.86861 -4.86211,4.04794 -5.93625,4.84295 -2.22373,1.64587 -5.62325,3.41268 -7.51487,3.90566 -1.5323,0.39933 -4.49228,0.59474 -5.24101,0.346 z"
     id="path864"
     inkscape:connector-curvature="0" />
  <path
     style="fill:#82cff5;fill-opacity:1;stroke-width:0.213919"
     d="m 102.7529,302.96995 c -2.12694,-0.43885 -3.317898,-1.46427 -4.137112,-3.56209 -0.41497,-1.06263 -0.48691,-1.64394 -0.485315,-3.92155 0.0023,-3.2651 0.511716,-5.86803 1.914137,-9.78027 1.31879,-3.67893 1.40162,-3.93522 2.54282,-7.86805 2.39819,-8.26472 6.55581,-17.09969 10.87209,-23.10325 1.07237,-1.49158 1.08834,-1.50302 4.08752,-2.9292 1.65601,-0.78748 5.41752,-2.41538 8.35891,-3.61756 2.94138,-1.20218 5.6849,-2.42853 6.09669,-2.72522 1.87474,-1.35071 9.22098,-7.33256 12.51426,-10.19003 2.00014,-1.73546 7.37782,-6.53766 11.95038,-10.67156 4.57257,-4.13389 8.69729,-7.77752 9.16605,-8.09694 1.94952,-1.32845 5.01272,-2.0055 5.88292,-1.3003 l 0.4734,0.38363 -1.83059,3.74359 c -1.00682,2.05897 -3.9016,8.21983 -6.43284,13.69081 -7.47605,16.15865 -10.65841,22.51347 -14.99764,29.94866 -3.26478,5.59414 -7.85068,12.26517 -11.17621,16.25785 -7.01746,8.42524 -9.34212,10.44241 -17.85007,15.48896 -5.59891,3.32103 -9.60715,5.81073 -11.55163,7.17522 -1.36936,0.96093 -1.6255,1.05992 -2.99486,1.15746 -0.82359,0.0587 -1.9049,0.0226 -2.40291,-0.0802 z"
     id="path866"
     inkscape:connector-curvature="0" />
  <path
     style="fill:#82cff5;fill-opacity:1;stroke-width:0.213919"
     d="m 289.2331,255.78036 c -0.29414,-0.0474 -1.68996,-0.23908 -3.10182,-0.42605 -8.24403,-1.09175 -14.33562,-3.25045 -21.04652,-7.45831 -1.39669,-0.87576 -4.45236,-2.66561 -6.79039,-3.97745 -2.33802,-1.31184 -6.03182,-3.41761 -8.20845,-4.67949 -5.173,-2.999 -5.20881,-3.01908 -9.94723,-5.57741 -9.19621,-4.96515 -13.98836,-8.50965 -20.9,-15.45863 -4.42723,-4.45115 -6.13597,-6.49199 -6.7337,-8.04243 -0.30717,-0.79675 -0.32352,-1.11241 -0.11082,-2.13919 0.35944,-1.73515 0.79233,-2.02737 2.82296,-1.90558 2.02077,0.12119 3.18873,0.69569 5.30283,2.60837 1.81971,1.64634 2.76844,2.15507 7.53231,4.03901 6.76333,2.67464 10.45171,3.6814 26.52595,7.24038 8.48076,1.87771 10.50476,2.27768 24.22327,4.78684 21.17539,3.87306 22.42426,4.12808 23.26216,4.75017 0.41432,0.3076 1.52341,1.34366 2.46466,2.30234 6.32839,6.44567 9.53564,15.76007 6.98965,20.29912 -0.74494,1.32809 -2.25874,2.52875 -3.99479,3.16846 -1.23329,0.45445 -1.60574,0.47457 -9.51939,0.51445 -4.52974,0.0228 -8.47654,0.003 -8.77068,-0.0446 z"
     id="path868"
     inkscape:connector-curvature="0" />
  <path
     style="fill:#82cff5;fill-opacity:1;stroke-width:0.213919"
     d="m 182.1689,162.11141 c -0.86006,-0.82408 -1.0009,-1.07755 -1.0009,-1.80128 0,-0.91545 -1.17577,-5.76068 -2.47077,-10.18178 -0.77834,-2.65724 -3.34748,-10.32836 -12.17944,-36.36623 -4.66991,-13.767553 -5.49985,-16.501887 -6.23327,-20.53622 -0.73612,-4.049164 -0.93159,-10.269372 -0.43024,-13.690816 0.18964,-1.29421 0.54157,-4.230248 0.78206,-6.524529 1.46753,-14.00001 3.24765,-19.341411 8.44818,-25.349401 0.61105,-0.705932 1.55842,-1.968427 2.10525,-2.805544 1.32311,-2.025487 2.37804,-2.75635 3.97853,-2.75635 1.54319,0 3.08441,0.887474 5.16699,2.975282 3.81405,3.823637 6.09978,8.514571 8.32258,17.080151 2.2686,8.742051 3.5741,17.535705 4.58106,30.857288 0.17787,2.353109 0.4749,6.270588 0.66007,8.705509 0.18518,2.43493 0.42915,4.98591 0.54217,5.66886 0.85025,5.13797 0.28241,12.51664 -1.61832,21.02922 -0.9681,4.33573 -3.55361,14.01286 -4.49832,16.83653 -0.48145,1.43899 -1.0499,4.01561 -1.60923,7.29417 -1.02979,6.03622 -1.16684,6.59752 -1.79238,7.34093 -0.29672,0.35263 -0.53112,0.99264 -0.61121,1.6688 -0.0714,0.60324 -0.18797,1.19078 -0.25895,1.30563 -0.26864,0.43465 -0.91655,0.17663 -1.88386,-0.75022 z"
     id="path870"
     inkscape:connector-curvature="0" />
  <path
     style="fill:#82cff5;fill-opacity:1;stroke-width:0.213919"
     d="m 54.468466,236.4198 c -6.878732,-0.6629 -12.522191,-2.29012 -16.464692,-4.74737 -1.555452,-0.96947 -3.584206,-2.61177 -3.584206,-2.90145 0,-0.31917 3.312369,-3.85582 5.192085,-5.54364 4.879329,-4.38123 14.033756,-10.53508 19.471495,-13.08927 4.070682,-1.91207 17.509501,-6.86517 23.838316,-8.78601 8.148609,-2.47316 13.428367,-3.51854 29.043736,-5.75056 9.18365,-1.31269 16.15101,-2.09829 20.10839,-2.26732 1.64717,-0.0703 4.10178,-0.27865 5.45468,-0.46288 1.61894,-0.22046 3.07309,-0.28782 4.25381,-0.19706 2.8365,0.21803 11.65472,1.64293 11.95884,1.93238 0.15148,0.14418 0.29588,0.53813 0.32088,0.87545 0.0793,1.07004 -0.43319,1.16719 -5.94429,1.12681 -3.81466,-0.028 -5.40077,0.0467 -7.05932,0.33222 -4.54612,0.78263 -10.78834,2.69924 -16.15089,4.95895 -3.54766,1.49494 -18.83253,9.18064 -22.35453,11.24054 -8.001499,4.6798 -16.915117,11.0562 -27.109771,19.3931 -2.203584,1.80203 -4.27325,3.37933 -4.599258,3.50513 -0.326008,0.12579 -3.288121,0.3126 -6.582474,0.41514 -6.847277,0.21311 -7.241203,0.21174 -9.792801,-0.0342 z"
     id="path872"
     inkscape:connector-curvature="0" />
  <path
     style="fill:#fef102;fill-opacity:1;stroke-width:0.213919"
     d="m 88.968911,195.14156 c -9.517513,-0.72512 -14.512979,-1.62354 -19.585321,-3.52234 -2.857132,-1.06955 -11.213936,-4.9017 -13.999961,-6.41991 -4.408848,-2.40254 -9.035381,-5.44476 -15.219712,-10.00783 -2.102175,-1.55108 -3.013471,-2.35764 -3.181168,-2.81555 -0.381711,-1.0423 -0.507062,-3.37849 -0.226836,-4.22759 1.042805,-3.15973 5.756084,-5.77433 12.637984,-7.01068 3.022257,-0.54295 28.631755,-0.20397 41.500285,0.54933 14.208318,0.83172 17.736528,1.20961 20.322308,2.17661 2.72809,1.02023 9.74936,4.43368 14.89772,7.24267 6.47297,3.53169 11.27022,5.75513 13.87438,6.43051 1.6397,0.42525 4.3462,2.02103 8.12173,4.78865 4.42388,3.24288 6.00097,4.28882 7.91123,5.24677 1.69844,0.85173 1.72133,0.87398 1.65111,1.6044 -0.0995,1.03483 -0.47887,1.74917 -1.10535,2.08122 -0.71801,0.38056 -3.26291,0.19046 -8.34284,-0.62321 -5.04742,-0.80847 -9.17059,-1.0023 -11.19054,-0.52608 -0.93516,0.22047 -2.42962,0.34387 -4.17142,0.34442 -5.42243,0.002 -12.66724,0.73233 -23.46433,2.36622 -12.892227,1.95095 -17.105139,2.55334 -17.646777,2.52328 -0.294988,-0.0164 -1.54711,-0.10677 -2.782492,-0.20089 z"
     id="path874"
     inkscape:connector-curvature="0" />
  <path
     style="fill:#fef102;fill-opacity:1;stroke-width:0.213919"
     d="m 287.48574,255.46672 c -4.7712,-0.73256 -5.98491,-0.96117 -8.4498,-1.59158 -4.85571,-1.24188 -8.54314,-2.84342 -13.79778,-5.99273 -4.13992,-2.48121 -19.93939,-11.51395 -24.49372,-14.00334 -9.8401,-5.37858 -14.12742,-8.51956 -21.05356,-15.42423 -6.18881,-6.16963 -7.43856,-7.8975 -7.22297,-9.98633 0.0653,-0.63248 0.2789,-1.39448 0.47472,-1.69334 0.34489,-0.52637 0.41392,-0.54043 2.20641,-0.44958 2.21884,0.11246 2.86016,0.40737 5.2668,2.42192 0.93778,0.785 2.37849,1.7664 3.20158,2.1809 1.8701,0.94177 7.65843,3.2132 10.49553,4.11862 6.99523,2.23242 23.99357,6.00647 41.92812,9.30908 15.84556,2.91793 23.35449,4.35937 24.70765,4.74298 1.04316,0.29572 1.4317,0.59158 3.42704,2.60952 5.20632,5.26529 8.48307,12.32395 8.06055,17.36375 -0.20368,2.42957 -1.08716,3.97002 -3.00299,5.2361 -1.99217,1.31652 -2.66122,1.39185 -12.11269,1.36391 -4.65209,-0.0138 -8.98779,-0.1063 -9.63489,-0.20565 z"
     id="path876"
     inkscape:connector-curvature="0" />
</svg>
